<?xml version="1.0" encoding="utf-8"?>
<!-- Generator: Adobe Illustrator 16.0.4, SVG Export Plug-In . SVG Version: 6.00 Build 0)  -->
<!DOCTYPE svg PUBLIC "-//W3C//DTD SVG 1.1//EN" "http://www.w3.org/Graphics/SVG/1.1/DTD/svg11.dtd">
<svg version="1.1" id="Layer_1" xmlns="http://www.w3.org/2000/svg" xmlns:xlink="http://www.w3.org/1999/xlink" x="0px" y="0px"
	 width="48px" height="48px" viewBox="0 0 48 48" enable-background="new 0 0 48 48" xml:space="preserve">
<g>
	<path fill="#333333" d="M31.778,3.494l12.729,12.728L16.222,44.506L3.495,31.778L31.778,3.494 M31.778,0.666L0.666,31.778
		l15.556,15.556l31.113-31.112L31.778,0.666L31.778,0.666z"/>
</g>
<g>
	<path fill="#333333" d="M24,18c3.309,0,6,2.691,6,6c0,3.309-2.691,6-6,6s-6-2.691-6-6C18,20.691,20.691,18,24,18 M24,16
		c-4.418,0-8,3.581-8,8s3.582,8,8,8c4.42,0,8-3.582,8-8S28.42,16,24,16L24,16z"/>
</g>
</svg>
