<?xml version="1.0" encoding="utf-8"?>
<!-- Generator: Adobe Illustrator 16.0.4, SVG Export Plug-In . SVG Version: 6.00 Build 0)  -->
<!DOCTYPE svg PUBLIC "-//W3C//DTD SVG 1.1//EN" "http://www.w3.org/Graphics/SVG/1.1/DTD/svg11.dtd">
<svg version="1.1" id="Layer_1" xmlns="http://www.w3.org/2000/svg" xmlns:xlink="http://www.w3.org/1999/xlink" x="0px" y="0px"
	 width="48px" height="48px" viewBox="0 0 48 48" enable-background="new 0 0 48 48" xml:space="preserve">
<g>
	<path fill="#333333" d="M23.999,1.99c6.623,0,12.012,5.509,12.012,12.28c0,2.483-0.724,4.876-2.091,6.92l-0.095,0.141l-0.003,0.007
		c-0.308,0.41-1.355,1.634-1.731,1.986l-0.03,0.029l-0.029,0.03c-4.176,4.256-6.584,9.197-7.973,13.532
		c-1.457-4.337-3.926-9.285-8.113-13.553l-0.027-0.028l-0.029-0.027c-0.363-0.342-1.369-1.513-1.665-1.904l-0.004-0.009l-0.095-0.14
		c-1.398-2.062-2.137-4.477-2.137-6.983C11.99,7.499,17.377,1.99,23.999,1.99 M23.999,0C16.268,0,10,6.389,10,14.27
		c0,3.009,0.919,5.797,2.479,8.1c0.102,0.225,1.51,1.88,2.046,2.385C23.993,34.404,24.164,48,24.164,48s-0.159-13.596,9.288-23.224
		c0.562-0.526,2.021-2.251,2.122-2.479C37.104,20.01,38,17.247,38,14.27C38,6.389,31.732,0,23.999,0L23.999,0z"/>
</g>
</svg>
