<?xml version="1.0" encoding="utf-8"?>
<!-- Generator: Adobe Illustrator 16.0.4, SVG Export Plug-In . SVG Version: 6.00 Build 0)  -->
<!DOCTYPE svg PUBLIC "-//W3C//DTD SVG 1.1//EN" "http://www.w3.org/Graphics/SVG/1.1/DTD/svg11.dtd">
<svg version="1.1" id="Layer_1" xmlns="http://www.w3.org/2000/svg" xmlns:xlink="http://www.w3.org/1999/xlink" x="0px" y="0px"
	 width="320px" height="320px" viewBox="0 0 320 320" enable-background="new 0 0 320 320" xml:space="preserve">
<rect x="20" y="20" fill="#231F20" width="11.2" height="67.2"/>
<rect x="20" y="87.2" fill="#231F20" width="11.2" height="11.2"/>
<rect x="20" y="109.601" fill="#231F20" width="11.2" height="33.599"/>
<rect x="20" y="154.399" fill="#231F20" width="11.2" height="11.2"/>
<rect x="20" y="176.8" fill="#231F20" width="11.2" height="11.2"/>
<rect x="20" y="199.198" fill="#231F20" width="11.2" height="11.201"/>
<rect x="20" y="221.599" fill="#231F20" width="11.2" height="22.402"/>
<rect x="20" y="244.001" fill="#231F20" width="11.2" height="33.6"/>
<rect x="20" y="277.6" fill="#231F20" width="11.2" height="22.4"/>
<rect x="31.2" y="20" fill="#231F20" width="11.2" height="11.2"/>
<rect x="31.2" y="87.2" fill="#231F20" width="11.2" height="11.2"/>
<rect x="31.2" y="120.8" fill="#231F20" width="11.2" height="11.2"/>
<rect x="31.2" y="176.8" fill="#231F20" width="11.2" height="11.2"/>
<rect x="31.2" y="199.198" fill="#231F20" width="11.2" height="11.201"/>
<rect x="31.2" y="221.599" fill="#231F20" width="11.2" height="11.2"/>
<rect x="31.2" y="288.799" fill="#231F20" width="11.2" height="11.201"/>
<rect x="42.4" y="20" fill="#231F20" width="11.201" height="11.2"/>
<rect x="42.4" y="42.4" fill="#231F20" width="11.201" height="33.602"/>
<rect x="42.4" y="87.2" fill="#231F20" width="11.201" height="11.2"/>
<rect x="42.4" y="109.601" fill="#231F20" width="11.201" height="33.599"/>
<rect x="42.4" y="165.6" fill="#231F20" width="11.201" height="11.2"/>
<rect x="42.4" y="188" fill="#231F20" width="11.201" height="11.201"/>
<rect x="42.4" y="221.599" fill="#231F20" width="11.201" height="11.2"/>
<rect x="42.4" y="244.001" fill="#231F20" width="11.201" height="33.6"/>
<rect x="42.4" y="288.799" fill="#231F20" width="11.201" height="11.201"/>
<rect x="53.601" y="20" fill="#231F20" width="11.2" height="11.2"/>
<rect x="53.601" y="42.4" fill="#231F20" width="11.2" height="33.602"/>
<rect x="53.601" y="87.2" fill="#231F20" width="11.2" height="11.2"/>
<rect x="53.601" y="120.8" fill="#231F20" width="11.2" height="11.2"/>
<rect x="53.601" y="143.199" fill="#231F20" width="11.2" height="11.2"/>
<rect x="53.601" y="188" fill="#231F20" width="11.2" height="11.201"/>
<rect x="53.601" y="221.599" fill="#231F20" width="11.2" height="11.2"/>
<rect x="53.601" y="244.001" fill="#231F20" width="11.2" height="33.6"/>
<rect x="53.601" y="288.799" fill="#231F20" width="11.2" height="11.201"/>
<rect x="64.801" y="20" fill="#231F20" width="11.201" height="11.2"/>
<rect x="64.801" y="42.4" fill="#231F20" width="11.201" height="33.602"/>
<rect x="64.801" y="87.2" fill="#231F20" width="11.201" height="11.2"/>
<rect x="64.801" y="120.8" fill="#231F20" width="11.201" height="11.2"/>
<rect x="64.801" y="143.199" fill="#231F20" width="11.201" height="22.4"/>
<rect x="64.801" y="199.198" fill="#231F20" width="11.201" height="11.201"/>
<rect x="64.801" y="221.599" fill="#231F20" width="11.201" height="11.2"/>
<rect x="64.801" y="244.001" fill="#231F20" width="11.201" height="33.6"/>
<rect x="64.801" y="288.799" fill="#231F20" width="11.201" height="11.201"/>
<rect x="76" y="20" fill="#231F20" width="11.2" height="11.2"/>
<rect x="76" y="87.2" fill="#231F20" width="11.2" height="11.2"/>
<rect x="76" y="143.199" fill="#231F20" width="11.2" height="11.2"/>
<rect x="76" y="188" fill="#231F20" width="11.2" height="22.4"/>
<rect x="76" y="221.599" fill="#231F20" width="11.2" height="11.2"/>
<rect x="76" y="288.799" fill="#231F20" width="11.2" height="11.201"/>
<rect x="87.2" y="20" fill="#231F20" width="11.2" height="67.2"/>
<rect x="87.2" y="87.2" fill="#231F20" width="11.2" height="11.2"/>
<rect x="87.2" y="109.601" fill="#231F20" width="11.2" height="11.2"/>
<rect x="87.2" y="131.999" fill="#231F20" width="11.2" height="11.2"/>
<rect x="87.2" y="154.399" fill="#231F20" width="11.2" height="11.2"/>
<rect x="87.2" y="176.8" fill="#231F20" width="11.2" height="11.2"/>
<rect x="87.2" y="199.198" fill="#231F20" width="11.2" height="11.201"/>
<rect x="87.2" y="221.599" fill="#231F20" width="11.2" height="22.402"/>
<rect x="87.2" y="244.001" fill="#231F20" width="11.2" height="33.6"/>
<rect x="87.2" y="277.6" fill="#231F20" width="11.2" height="22.4"/>
<rect x="98.4" y="109.601" fill="#231F20" width="11.201" height="33.599"/>
<rect x="98.4" y="143.199" fill="#231F20" width="11.201" height="11.2"/>
<rect x="98.4" y="165.6" fill="#231F20" width="11.201" height="11.2"/>
<rect x="109.601" y="20" fill="#231F20" width="11.2" height="11.2"/>
<rect x="109.601" y="42.4" fill="#231F20" width="11.2" height="11.201"/>
<rect x="109.601" y="76" fill="#231F20" width="11.2" height="11.2"/>
<rect x="109.601" y="87.2" fill="#231F20" width="11.2" height="11.2"/>
<rect x="109.601" y="120.8" fill="#231F20" width="11.2" height="11.2"/>
<rect x="109.601" y="154.399" fill="#231F20" width="11.2" height="11.2"/>
<rect x="109.601" y="176.8" fill="#231F20" width="11.2" height="22.401"/>
<rect x="109.601" y="210.399" fill="#231F20" width="11.2" height="22.399"/>
<rect x="109.601" y="266.398" fill="#231F20" width="11.2" height="11.201"/>
<rect x="109.601" y="288.799" fill="#231F20" width="11.2" height="11.201"/>
<rect x="120.8" y="53.601" fill="#231F20" width="11.2" height="22.401"/>
<rect x="120.8" y="109.601" fill="#231F20" width="11.2" height="11.2"/>
<rect x="120.8" y="131.999" fill="#231F20" width="11.2" height="11.2"/>
<rect x="120.8" y="154.399" fill="#231F20" width="11.2" height="11.2"/>
<rect x="120.8" y="176.8" fill="#231F20" width="11.2" height="11.2"/>
<rect x="120.8" y="199.198" fill="#231F20" width="11.2" height="11.201"/>
<rect x="120.8" y="210.399" fill="#231F20" width="11.2" height="11.199"/>
<rect x="120.8" y="232.799" fill="#231F20" width="11.2" height="11.202"/>
<rect x="120.8" y="266.398" fill="#231F20" width="11.2" height="11.201"/>
<rect x="120.8" y="288.799" fill="#231F20" width="11.2" height="11.201"/>
<rect x="131.999" y="20" fill="#231F20" width="11.2" height="11.2"/>
<rect x="131.999" y="42.4" fill="#231F20" width="11.2" height="11.201"/>
<rect x="131.999" y="64.801" fill="#231F20" width="11.2" height="11.201"/>
<rect x="131.999" y="87.2" fill="#231F20" width="11.2" height="33.601"/>
<rect x="131.999" y="143.199" fill="#231F20" width="11.2" height="11.2"/>
<rect x="131.999" y="165.6" fill="#231F20" width="11.2" height="11.2"/>
<rect x="131.999" y="188" fill="#231F20" width="11.2" height="11.201"/>
<rect x="131.999" y="221.599" fill="#231F20" width="11.2" height="11.2"/>
<rect x="131.999" y="244.001" fill="#231F20" width="11.2" height="33.6"/>
<rect x="131.999" y="277.6" fill="#231F20" width="11.2" height="11.199"/>
<rect x="143.199" y="53.601" fill="#231F20" width="11.2" height="11.2"/>
<rect x="143.199" y="76" fill="#231F20" width="11.2" height="11.2"/>
<rect x="143.199" y="176.8" fill="#231F20" width="11.2" height="11.2"/>
<rect x="143.199" y="199.198" fill="#231F20" width="11.2" height="11.201"/>
<rect x="143.199" y="232.799" fill="#231F20" width="11.2" height="11.202"/>
<rect x="143.199" y="266.398" fill="#231F20" width="11.2" height="11.201"/>
<rect x="143.199" y="288.799" fill="#231F20" width="11.2" height="11.201"/>
<rect x="154.399" y="20" fill="#231F20" width="11.2" height="11.2"/>
<rect x="154.399" y="64.801" fill="#231F20" width="11.2" height="11.201"/>
<rect x="154.399" y="87.2" fill="#231F20" width="11.2" height="44.799"/>
<rect x="154.399" y="199.198" fill="#231F20" width="11.2" height="11.201"/>
<rect x="154.399" y="210.399" fill="#231F20" width="11.2" height="33.599"/>
<rect x="154.399" y="288.799" fill="#231F20" width="11.2" height="11.201"/>
<rect x="165.6" y="20" fill="#231F20" width="11.2" height="56"/>
<rect x="165.6" y="120.8" fill="#231F20" width="11.2" height="11.2"/>
<rect x="165.6" y="154.399" fill="#231F20" width="11.2" height="22.4"/>
<rect x="165.6" y="188" fill="#231F20" width="11.2" height="22.4"/>
<rect x="165.6" y="221.599" fill="#231F20" width="11.2" height="11.2"/>
<rect x="165.6" y="244.001" fill="#231F20" width="11.2" height="22.397"/>
<rect x="165.6" y="277.6" fill="#231F20" width="11.2" height="22.4"/>
<rect x="176.8" y="20" fill="#231F20" width="11.2" height="11.2"/>
<rect x="176.8" y="53.601" fill="#231F20" width="11.2" height="22.401"/>
<rect x="176.8" y="87.2" fill="#231F20" width="11.2" height="33.601"/>
<rect x="176.8" y="143.199" fill="#231F20" width="11.2" height="22.4"/>
<rect x="176.8" y="221.599" fill="#231F20" width="11.2" height="22.402"/>
<rect x="176.8" y="244.001" fill="#231F20" width="11.2" height="22.397"/>
<rect x="187.999" y="53.601" fill="#231F20" width="11.199" height="11.2"/>
<rect x="187.999" y="98.4" fill="#231F20" width="11.199" height="44.799"/>
<rect x="187.999" y="143.199" fill="#231F20" width="11.199" height="11.2"/>
<rect x="187.999" y="165.6" fill="#231F20" width="11.199" height="44.8"/>
<rect x="187.999" y="232.799" fill="#231F20" width="11.199" height="11.202"/>
<rect x="187.999" y="244.001" fill="#231F20" width="11.199" height="33.6"/>
<rect x="199.198" y="64.801" fill="#231F20" width="11.201" height="11.201"/>
<rect x="199.198" y="87.2" fill="#231F20" width="11.201" height="11.2"/>
<rect x="199.198" y="109.601" fill="#231F20" width="11.201" height="22.4"/>
<rect x="199.198" y="143.199" fill="#231F20" width="11.201" height="33.6"/>
<rect x="199.198" y="199.198" fill="#231F20" width="11.201" height="11.201"/>
<rect x="199.198" y="210.399" fill="#231F20" width="11.201" height="33.599"/>
<rect x="199.198" y="244.001" fill="#231F20" width="11.201" height="11.199"/>
<rect x="199.198" y="266.398" fill="#231F20" width="11.201" height="11.201"/>
<rect x="199.198" y="277.6" fill="#231F20" width="11.201" height="22.4"/>
<rect x="210.399" y="131.999" fill="#231F20" width="11.199" height="11.2"/>
<rect x="210.399" y="199.198" fill="#231F20" width="11.199" height="11.201"/>
<rect x="210.399" y="244.001" fill="#231F20" width="11.199" height="33.6"/>
<rect x="210.399" y="288.799" fill="#231F20" width="11.199" height="11.201"/>
<rect x="221.599" y="20" fill="#231F20" width="11.2" height="67.2"/>
<rect x="221.599" y="87.2" fill="#231F20" width="11.2" height="11.2"/>
<rect x="221.599" y="120.8" fill="#231F20" width="11.2" height="11.2"/>
<rect x="221.599" y="154.399" fill="#231F20" width="11.2" height="22.4"/>
<rect x="221.599" y="188" fill="#231F20" width="11.2" height="22.4"/>
<rect x="221.599" y="221.599" fill="#231F20" width="11.2" height="11.2"/>
<rect x="221.599" y="244.001" fill="#231F20" width="11.2" height="11.199"/>
<rect x="221.599" y="277.6" fill="#231F20" width="11.2" height="11.199"/>
<rect x="232.799" y="20" fill="#231F20" width="11.202" height="11.2"/>
<rect x="232.799" y="87.2" fill="#231F20" width="11.202" height="11.2"/>
<rect x="232.799" y="109.601" fill="#231F20" width="11.202" height="22.4"/>
<rect x="232.799" y="143.199" fill="#231F20" width="11.202" height="44.8"/>
<rect x="232.799" y="199.198" fill="#231F20" width="11.202" height="11.201"/>
<rect x="232.799" y="244.001" fill="#231F20" width="11.202" height="11.199"/>
<rect x="232.799" y="277.6" fill="#231F20" width="11.202" height="11.199"/>
<rect x="244.001" y="20" fill="#231F20" width="11.199" height="11.2"/>
<rect x="244.001" y="42.4" fill="#231F20" width="11.199" height="33.602"/>
<rect x="244.001" y="87.2" fill="#231F20" width="11.199" height="11.2"/>
<rect x="244.001" y="143.199" fill="#231F20" width="11.199" height="11.2"/>
<rect x="244.001" y="188" fill="#231F20" width="11.199" height="22.4"/>
<rect x="244.001" y="210.399" fill="#231F20" width="11.199" height="33.599"/>
<rect x="244.001" y="244.001" fill="#231F20" width="11.199" height="33.6"/>
<rect x="244.001" y="277.6" fill="#231F20" width="11.199" height="11.199"/>
<rect x="255.199" y="20" fill="#231F20" width="11.199" height="11.2"/>
<rect x="255.199" y="42.4" fill="#231F20" width="11.199" height="33.602"/>
<rect x="255.199" y="87.2" fill="#231F20" width="11.199" height="11.2"/>
<rect x="255.199" y="120.8" fill="#231F20" width="11.199" height="22.4"/>
<rect x="255.199" y="143.199" fill="#231F20" width="11.199" height="11.2"/>
<rect x="255.199" y="176.8" fill="#231F20" width="11.199" height="11.2"/>
<rect x="255.199" y="221.599" fill="#231F20" width="11.199" height="11.2"/>
<rect x="255.199" y="244.001" fill="#231F20" width="11.199" height="22.397"/>
<rect x="255.199" y="288.799" fill="#231F20" width="11.199" height="11.201"/>
<rect x="266.398" y="20" fill="#231F20" width="11.201" height="11.2"/>
<rect x="266.398" y="42.4" fill="#231F20" width="11.201" height="33.602"/>
<rect x="266.398" y="87.2" fill="#231F20" width="11.201" height="11.2"/>
<rect x="266.398" y="109.601" fill="#231F20" width="11.201" height="11.2"/>
<rect x="266.398" y="131.999" fill="#231F20" width="11.201" height="11.2"/>
<rect x="266.398" y="176.8" fill="#231F20" width="11.201" height="11.2"/>
<rect x="266.398" y="210.399" fill="#231F20" width="11.201" height="11.199"/>
<rect x="266.398" y="255.199" fill="#231F20" width="11.201" height="11.199"/>
<rect x="277.6" y="20" fill="#231F20" width="11.199" height="11.2"/>
<rect x="277.6" y="87.2" fill="#231F20" width="11.199" height="11.2"/>
<rect x="277.6" y="120.8" fill="#231F20" width="11.199" height="11.2"/>
<rect x="277.6" y="165.6" fill="#231F20" width="11.199" height="11.2"/>
<rect x="277.6" y="199.198" fill="#231F20" width="11.199" height="11.201"/>
<rect x="277.6" y="255.199" fill="#231F20" width="11.199" height="22.4"/>
<rect x="288.799" y="20" fill="#231F20" width="11.201" height="67.2"/>
<rect x="288.799" y="87.2" fill="#231F20" width="11.201" height="11.2"/>
<rect x="288.799" y="109.601" fill="#231F20" width="11.201" height="33.599"/>
<rect x="288.799" y="154.399" fill="#231F20" width="11.201" height="33.601"/>
<rect x="288.799" y="210.399" fill="#231F20" width="11.201" height="22.399"/>
<rect x="288.799" y="244.001" fill="#231F20" width="11.201" height="11.199"/>
<rect x="288.799" y="266.398" fill="#231F20" width="11.201" height="11.201"/>
<rect x="288.799" y="288.799" fill="#231F20" width="11.201" height="11.201"/>
</svg>
