<?xml version="1.0" encoding="utf-8"?>
<!-- Generator: Adobe Illustrator 16.0.4, SVG Export Plug-In . SVG Version: 6.00 Build 0)  -->
<!DOCTYPE svg PUBLIC "-//W3C//DTD SVG 1.1//EN" "http://www.w3.org/Graphics/SVG/1.1/DTD/svg11.dtd">
<svg version="1.1" id="svg2" xmlns="http://www.w3.org/2000/svg" xmlns:xlink="http://www.w3.org/1999/xlink" x="0px" y="0px"
	 width="64px" height="64px" viewBox="0 0 64 64" enable-background="new 0 0 64 64" xml:space="preserve">
<rect fill="#2AA9E0" width="64" height="64"/>
<path fill="#FFFFFF" d="M56.753,16.803c-1.766,0.783-3.664,1.312-5.656,1.551c2.033-1.219,3.595-3.148,4.33-5.448
	c-1.902,1.128-4.011,1.948-6.254,2.39c-1.796-1.914-4.355-3.11-7.188-3.11c-5.438,0-9.848,4.409-9.848,9.848
	c0,0.772,0.087,1.523,0.255,2.244c-8.185-0.411-15.441-4.331-20.298-10.289c-0.848,1.454-1.333,3.146-1.333,4.951
	c0,3.417,1.898,6.431,4.54,8.196C13.687,27.084,12,26.641,11,25.903c0,0.041,0,0.083,0,0.124c0,4.771,3.235,8.751,7.74,9.656
	c-0.826,0.226-1.776,0.346-2.674,0.346c-0.635,0-1.291-0.062-1.892-0.177c1.253,3.912,4.87,6.759,9.179,6.838
	c-3.371,2.642-7.626,4.217-12.241,4.217c-0.795,0-1.583-0.047-2.354-0.139c4.358,2.795,9.532,4.425,15.093,4.425
	c18.114,0,28.018-15.005,28.018-28.019c0-0.427-0.01-0.852-0.029-1.274C53.764,20.512,55.433,18.778,56.753,16.803z"/>
</svg>
